<?xml version="1.0" encoding="utf-8"?>
<!-- Generator: Adobe Illustrator 23.0.6, SVG Export Plug-In . SVG Version: 6.00 Build 0)  -->
<svg version="1.1" id="Layer_1" xmlns="http://www.w3.org/2000/svg" xmlns:xlink="http://www.w3.org/1999/xlink" x="0px" y="0px"
	 width="26px" height="27.8px" viewBox="0 0 26 27.8" style="enable-background:new 0 0 26 27.8;" xml:space="preserve">
<style type="text/css">
	.st0{fill-rule:evenodd;clip-rule:evenodd;fill:#010101;}
</style>
<g>
	<path class="st0" d="M0.4,11.3c0,6.1,4.9,11,11,11c2,0,3.9-0.5,5.5-1.5l5.3,5.8c0,0,1.4,1.5,2.8,0.5c1.2-0.9,0.2-2.3,0.2-2.3
		l-5.5-6.3c1.7-1.9,2.7-4.5,2.7-7.2c0-6.1-4.9-11-11-11C5.4,0.3,0.4,5.2,0.4,11.3z M2.4,11.3c0-5,4-9,9-9s9,4,9,9s-4,9-9,9
		S2.4,16.3,2.4,11.3z"/>
</g>
</svg>
