<?xml version="1.0" encoding="utf-8"?>
<!-- Generator: Adobe Illustrator 23.0.6, SVG Export Plug-In . SVG Version: 6.00 Build 0)  -->
<svg version="1.1" id="Layer_1" xmlns="http://www.w3.org/2000/svg" xmlns:xlink="http://www.w3.org/1999/xlink" x="0px" y="0px"
	 width="31.3px" height="30.9px" viewBox="0 0 31.3 30.9" style="enable-background:new 0 0 31.3 30.9;" xml:space="preserve">
<style type="text/css">
	.st0{fill-rule:evenodd;clip-rule:evenodd;fill:#010101;}
</style>
<g>
	<path class="st0" d="M17.1,24.4h-3.5V16h-1.8v-3.3h1.8v-2c0-2.7,1-4.3,3.8-4.3h2.4v3.3h-1.5c-1.1,0-1.2,0.5-1.2,1.3l0,1.7h2.7
		L19.5,16h-2.4V24.4z"/>
	<path class="st0" d="M15.7,0.4c-8.3,0-15,6.7-15,15s6.7,15,15,15s15-6.7,15-15S23.9,0.4,15.7,0.4z M15.7,28.4c-7.2,0-13-5.8-13-13
		s5.8-13,13-13s13,5.8,13,13S22.8,28.4,15.7,28.4z"/>
</g>
</svg>
