<?xml version="1.0" encoding="utf-8"?>
<!-- Generator: Adobe Illustrator 23.0.6, SVG Export Plug-In . SVG Version: 6.00 Build 0)  -->
<svg version="1.1" id="Layer_1" xmlns="http://www.w3.org/2000/svg" xmlns:xlink="http://www.w3.org/1999/xlink" x="0px" y="0px"
	 width="28.7px" height="29.4px" viewBox="0 0 28.7 29.4" style="enable-background:new 0 0 28.7 29.4;" xml:space="preserve">
<style type="text/css">
	
		.st0{fill-rule:evenodd;clip-rule:evenodd;fill:none;stroke:#010101;stroke-width:1.8;stroke-linecap:round;stroke-linejoin:round;stroke-miterlimit:10;}
</style>
<g>
	<path class="st0" d="M6.8,9c0-4.2,3.4-7.6,7.6-7.6s7.6,3.4,7.6,7.6s-3.4,7.6-7.6,7.6S6.8,13.2,6.8,9z"/>
	<path class="st0" d="M18.9,15c-1.3,1-2.9,1.6-4.6,1.6c-1.7,0-3.3-0.6-4.6-1.6c-4.8,2-8.2,7.1-8.2,13c0,0,0,0,0,0h25.7c0,0,0,0,0,0
		C27.2,22.1,23.8,17,18.9,15z"/>
</g>
</svg>
