<?xml version="1.0" encoding="utf-8"?>
<!-- Generator: Adobe Illustrator 23.0.6, SVG Export Plug-In . SVG Version: 6.00 Build 0)  -->
<svg version="1.1" id="Layer_1" xmlns="http://www.w3.org/2000/svg" xmlns:xlink="http://www.w3.org/1999/xlink" x="0px" y="0px"
	 width="214.7px" height="75.3px" viewBox="0 0 214.7 75.3" style="enable-background:new 0 0 214.7 75.3;" xml:space="preserve">
<style type="text/css">
	.st0{fill:#D7004D;}
	.st1{fill-rule:evenodd;clip-rule:evenodd;fill:#D7004D;}
	.st2{fill:none;stroke:#060404;stroke-width:2;stroke-linecap:round;stroke-linejoin:round;stroke-miterlimit:10;}
	.st3{fill:#060404;}
</style>
<g>
	<path class="st0" d="M20.1,7.4h0.5c14.4,0,14.2,1.7,14.2,16.9h1.4V6.9H21H5.2v0.5H11v17.9v44.2H5.2v0.5h31V52.5h-1.4
		c0,15.2,0.3,16.9-14.2,16.9h-0.5V38.2h0.3c9.4,0,8.1,4.1,8.1,10.9H30v-23h-1.4c0,5.8,1.3,11.5-8,11.5h-0.4V25.2V7.4z"/>
	<path class="st1" d="M38.4,6.8v0.5H41c0.2,0,1.6,0,2.6,1c1,1,1.4,4,1.4,6v55.4L73.8,12c0.9-1.9,2.2-3,3.6-3.9
		c1.4-0.9,3.9-0.8,3.9-0.8V6.8l-16.1,0v0.5h3.3c1,0,2.1,0.1,3.1,1.9c1,1.8-0.3,5.1-0.6,5.8c-0.1,0.4-17.3,34.3-17.3,34.3V13.1
		c0-1.7,0.7-4.2,1.4-4.8c0.8-0.7,1.7-1,2.9-1h3.2V6.8L38.4,6.8z"/>
	<g>
		<polygon class="st0" points="88.4,50.9 68,50.9 68.9,49.8 88.4,49.8 		"/>
		<path class="st1" d="M96.4,69.4v-0.5h-2.6c-0.2,0-1.6,0-2.7-1c-1-1-1.4-4-1.4-6V6.6L60.9,64.2c-0.9,1.9-2.2,3-3.6,3.9
			c-1.4,0.9-3.9,0.8-3.9,0.8v0.5h16.1v-0.5h-3.3c-1,0-2.1-0.1-3.1-1.9c-1-1.8,0.3-5.1,0.6-5.8c0.1-0.4,17.3-34.3,17.3-34.3v36.2
			c0,1.7-0.7,4.2-1.4,4.8c-0.8,0.7-1.7,1-2.8,1h-3.2v0.5H96.4z"/>
	</g>
</g>
<g>
	<path class="st2" d="M182.1,57.4c1.7,4.6,8.5,6.8,16.8,4.5c10.1-2.8,13.6-16,10.1-17.5c-3.6-1.6-5.4,1.2-5.8,3.1
		c-0.3,1.2-0.6,3.9-1.6,4.1c-1,0.3-2.6-2.5-4-2.3c-0.6,0.1-1.1,0.5-1.5,1c-0.8,1.1-1.1,2.7-0.4,3.8c0.7,1.2,2,1.8,2.9,2.3"/>
	<path class="st2" d="M106.4,55.1c0,0,10.1-0.8,11.2-5.5c1-4.7-6.1-5.3-7.9,0c-1.8,5.3,1.7,10,5.7,8.9c4-1.1,7.9-5.3,9-7.6
		c0.3-0.6,0.5-1.2,0.8-1.8c0.8-2,1.6-4,2-4c0.6,0-1.3,3.6-0.3,5.4c1,1.8,3.7,4.5,2.9,7.2c-0.8,2.7-4.8,1.4-4.4,1
		c0.4-0.5,6.7-0.5,8.7-2.1c1.5-1.2,4-3.9,4-3.9s0.4-9.9,1.4-13.8c0.9-3.9,3.4-7.5,5.3-6.2c2,1.4-4.9,12.2-5.2,12.8
		c-0.3,0.5-1.8,7.3-1.1,9.4c0.7,2.1,3.1,3.9,5.3,3.3c1.6-0.4,4.2-2.3,4.2-2.3"/>
	<path class="st2" d="M150.2,45.3c0,0-1.7,6.8-1.9,9.4c-0.2,2.5-0.4,5.2-0.4,5.2"/>
	<line class="st2" x1="133.8" y1="46" x2="147" y2="45.6"/>
	<line class="st2" x1="158.6" y1="46" x2="171.7" y2="45.6"/>
	<path class="st2" d="M164.2,46.6c0,0,7.4-3.5,7.2-11.3c-0.3-7.8-6.1-0.2-7.2,5.4c-1,5.6-1.6,16.7,2.2,17.7c3.7,1,7.2-2.4,7.2-2.4"
		/>
	<path class="st2" d="M176.1,45.6c0,0-3.8,11-1,13c2.8,2,6.7-6.2,6.7-6.2"/>
	<path class="st2" d="M183.7,45.3c0,0-2.8,7.1-1.9,10.9c0.4,1.5,1.1,2.6,1.1,2.6"/>
	<path class="st3" d="M152.5,42.1c0,0.7-0.5,1.2-1.2,1.2c-0.7,0-1.2-0.5-1.2-1.2c0-0.7,0.5-1.2,1.2-1.2
		C151.9,40.9,152.5,41.5,152.5,42.1z"/>
	<path class="st2" d="M124.1,67c0.5-0.8,0.6-1,1.2-1.9c0.6-0.9,0.8-2.1,0.1-2.9"/>
</g>
</svg>
